<svg xmlns="http://www.w3.org/2000/svg" xmlns:xlink="http://www.w3.org/1999/xlink" viewBox="0 0 383 384"><defs><style>.cls-1{fill:#fff;}.cls-2{fill:#1a1a1a;}.cls-3{fill:none;}.cls-4{fill:#333;}.cls-5{opacity:0.29;fill:url(#Degradado_sin_nombre_254);}.cls-6{opacity:0.1;fill:url(#Degradado_sin_nombre_20);}</style><radialGradient id="Degradado_sin_nombre_254" cx="51.18" cy="110.18" r="93.02" gradientTransform="translate(76.49 69.04) rotate(0.26)" gradientUnits="userSpaceOnUse"><stop offset="0" stop-color="#fff"/><stop offset="0.04" stop-color="#ededed"/><stop offset="0.17" stop-color="#bcbcbc"/><stop offset="0.3" stop-color="#929292"/><stop offset="0.44" stop-color="#707070"/><stop offset="0.57" stop-color="#555"/><stop offset="0.71" stop-color="#424242"/><stop offset="0.85" stop-color="#373737"/><stop offset="1" stop-color="#333"/></radialGradient><linearGradient id="Degradado_sin_nombre_20" x1="-1894.66" y1="1816.6" x2="-1880.98" y2="1708.49" gradientTransform="matrix(-1, 0, 0, -1, -1646.79, 2009.02)" gradientUnits="userSpaceOnUse"><stop offset="0" stop-color="#a4d3fa"/><stop offset="0.04" stop-color="#9ecbf1"/><stop offset="0.1" stop-color="#8db6d7"/><stop offset="0.18" stop-color="#7292ad"/><stop offset="0.27" stop-color="#4c6274"/><stop offset="0.37" stop-color="#1c242b"/><stop offset="0.43"/><stop offset="0.99"/></linearGradient></defs><g id="Capa_2" data-name="Capa 2"><g id="Capa_1-2" data-name="Capa 1"><path class="cls-1" d="M383,71.92V312.08A71.82,71.82,0,0,1,311.27,384H71.73A71.83,71.83,0,0,1,0,312.08V71.92A71.83,71.83,0,0,1,71.73,0H311.27A71.82,71.82,0,0,1,383,71.92Z"/><path class="cls-2" d="M212.86,105.14a105.2,105.2,0,0,0-16.78,34.06c-1.45-.12-2.91-.19-4.39-.2a52.78,52.78,0,0,0-52.85,48.48l.31-67.94a89.9,89.9,0,0,1,9.31-5.92,89.56,89.56,0,0,1,64.4-8.48Z"/><path class="cls-2" d="M198.18,244.14a52.78,52.78,0,0,0,46-50.51l0,12.26-.22,58.27a89.46,89.46,0,0,1-11.73,7.2,88.48,88.48,0,0,1-30.27,9.19A101.52,101.52,0,0,0,198.18,244.14Z"/><path class="cls-1" d="M102.21,191.94c0-.69,0-1.38,0-2.06v4.31C102.21,193.44,102.2,192.69,102.21,191.94Z"/><path d="M102.23,189.88c0,.68,0,1.37,0,2.06s0,1.5,0,2.25v-4.31Z"/><path class="cls-3" d="M244.2,193.63h0a52.79,52.79,0,0,1-105.4,2l0-8.12A52.78,52.78,0,0,1,191.69,139c1.48,0,2.94.08,4.39.2a52.79,52.79,0,0,1,48.13,51.14h0"/><path class="cls-2" d="M102.23,191.45l.47-101.59a5.7,5.7,0,0,1,7.87-5.24l21.51,8.86a11.54,11.54,0,0,1,7.14,10.71l-.38,83.29c-.11,1.34-.17,2.69-.17,4.06s0,2.72.13,4.06a52.78,52.78,0,0,0,52,49h.36a53.2,53.2,0,0,0,7-.43c.05.15.09.29.13.43a100.37,100.37,0,0,1,3.79,33.23h0c0,.92-.1,1.84-.16,2.74q-3.6.42-7.29.55c-1.17,0-2.35.06-3.53,0a89.24,89.24,0,0,1-88.88-89.7Z"/><path class="cls-4" d="M280.4,294.14a5.7,5.7,0,0,1-7.87,5.24L251,290.53a11.51,11.51,0,0,1-7.14-10.7l.06-15.67.27-70.53h0c0-.53,0-1.07,0-1.6s0-1.12,0-1.68h0a52.79,52.79,0,0,0-48.13-51.14l0-.09s0,0,0-.06a105.13,105.13,0,0,1,16.74-33.91c1.93.47,3.84,1,5.71,1.6.58.19,1.14.37,1.71.57A89.25,89.25,0,0,1,280.8,190V190l0,4.31v0Z"/><path class="cls-5" d="M148.46,113.62c-6.88,14-9,36.8-9.53,52.78l.22-46.86A89.9,89.9,0,0,1,148.46,113.62Z"/><path class="cls-6" d="M232.51,270.92c9.42-21.6,11.3-50.52,11.64-63.79l-.22,56.77A86.31,86.31,0,0,1,232.51,270.92Z"/></g></g></svg>
