<svg xmlns="http://www.w3.org/2000/svg" xmlns:xlink="http://www.w3.org/1999/xlink" viewBox="0 0 383 384"><defs><style>.cls-1{fill:#fff;}.cls-2{fill:url(#Degradado_sin_nombre_23);}.cls-3{fill:url(#Degradado_sin_nombre_245);}.cls-4{fill:none;}.cls-5{fill:url(#Degradado_sin_nombre_226);}.cls-6{fill:url(#Degradado_sin_nombre_229);}.cls-7{opacity:0.29;fill:url(#Degradado_sin_nombre_254);}.cls-8{opacity:0.1;fill:url(#Degradado_sin_nombre_20);}</style><radialGradient id="Degradado_sin_nombre_23" cx="91.48" cy="2024.42" fx="104.79237458644815" fy="2057.463352014767" r="245.54" gradientTransform="translate(-1753.64 171.3) rotate(-89.63)" gradientUnits="userSpaceOnUse"><stop offset="0" stop-color="#fff"/><stop offset="0.24" stop-color="#ffead2"/><stop offset="0.34" stop-color="#ffd5a7"/><stop offset="0.44" stop-color="#ffc17d"/><stop offset="0.55" stop-color="#ffb05b"/><stop offset="0.66" stop-color="#ffa340"/><stop offset="0.77" stop-color="#ff9a2d"/><stop offset="0.88" stop-color="#ff9522"/><stop offset="1" stop-color="#ff931e"/></radialGradient><radialGradient id="Degradado_sin_nombre_245" cx="-1825.4" cy="1741.48" r="114.15" gradientTransform="matrix(-1, 0, 0, -1, -1646.79, 2009.02)" gradientUnits="userSpaceOnUse"><stop offset="0" stop-color="#fff"/><stop offset="0.13" stop-color="#c4e5fc"/><stop offset="0.26" stop-color="#8ccbf9"/><stop offset="0.38" stop-color="#62b9f7"/><stop offset="0.47" stop-color="#48adf5"/><stop offset="0.53" stop-color="#3fa9f5"/><stop offset="0.53" stop-color="#3fa9f5"/><stop offset="0.96" stop-color="#3fa9f5"/><stop offset="0.96" stop-color="#3fa9f5"/><stop offset="1" stop-color="#3fa9f5"/></radialGradient><linearGradient id="Degradado_sin_nombre_226" x1="-1850.05" y1="1830.94" x2="-1723.75" y2="1830.94" gradientTransform="translate(-1649.08 2006.98) rotate(-179.87)" gradientUnits="userSpaceOnUse"><stop offset="0.01" stop-color="#cce0f4"/><stop offset="0.05" stop-color="#c3dcf2"/><stop offset="0.12" stop-color="#a9d2ee"/><stop offset="0.21" stop-color="#80c2e7"/><stop offset="0.31" stop-color="#47acde"/><stop offset="0.37" stop-color="#1e9cd7"/><stop offset="0.72" stop-color="#0075be"/><stop offset="0.99" stop-color="#005b97"/></linearGradient><linearGradient id="Degradado_sin_nombre_229" x1="99.57" y1="1912.95" x2="-59.33" y2="2046.81" gradientTransform="translate(-1753.64 171.3) rotate(-89.63)" gradientUnits="userSpaceOnUse"><stop offset="0" stop-color="#f15a24" stop-opacity="0.3"/><stop offset="0.09" stop-color="#f15a24" stop-opacity="0.34"/><stop offset="0.23" stop-color="#f15a24" stop-opacity="0.44"/><stop offset="0.4" stop-color="#f15a24" stop-opacity="0.62"/><stop offset="0.57" stop-color="#f15a24" stop-opacity="0.8"/><stop offset="0.87" stop-color="#f15a24"/><stop offset="1" stop-color="#f15a24"/></linearGradient><radialGradient id="Degradado_sin_nombre_254" cx="34.38" cy="106.98" r="117.28" gradientTransform="translate(76.49 69.04) rotate(0.26)" gradientUnits="userSpaceOnUse"><stop offset="0" stop-color="#fff"/><stop offset="0.04" stop-color="#ededed"/><stop offset="0.17" stop-color="#bcbcbc"/><stop offset="0.3" stop-color="#929292"/><stop offset="0.44" stop-color="#707070"/><stop offset="0.57" stop-color="#555"/><stop offset="0.71" stop-color="#424242"/><stop offset="0.85" stop-color="#373737"/><stop offset="1" stop-color="#333"/></radialGradient><linearGradient id="Degradado_sin_nombre_20" x1="-1909.33" y1="1816.55" x2="-1892.09" y2="1680.22" gradientTransform="matrix(-1, 0, 0, -1, -1646.79, 2009.02)" gradientUnits="userSpaceOnUse"><stop offset="0" stop-color="#a4d3fa"/><stop offset="0.04" stop-color="#9ecbf1"/><stop offset="0.1" stop-color="#8db6d7"/><stop offset="0.18" stop-color="#7292ad"/><stop offset="0.27" stop-color="#4c6274"/><stop offset="0.37" stop-color="#1c242b"/><stop offset="0.43"/><stop offset="0.99"/></linearGradient></defs><g id="Capa_2" data-name="Capa 2"><g id="Capa_1-2" data-name="Capa 1"><path class="cls-1" d="M383,71.92V312.08A71.82,71.82,0,0,1,311.27,384H71.73A71.83,71.83,0,0,1,0,312.08V71.92A71.83,71.83,0,0,1,71.73,0H311.27A71.82,71.82,0,0,1,383,71.92Z"/><path class="cls-2" d="M218.44,82.48c-10.81,14.18-17.29,29.69-21.17,43-1.82-.16-3.67-.25-5.53-.26A66.56,66.56,0,0,0,125.1,186.3l.39-85.66a113.59,113.59,0,0,1,11.74-7.46,112.92,112.92,0,0,1,81.21-10.7Z"/><path class="cls-3" d="M199.92,257.75a66.59,66.59,0,0,0,58-63.69l-.06,15.45L257.6,283a112.1,112.1,0,0,1-52.94,20.66A128.32,128.32,0,0,0,199.92,257.75Z"/><path class="cls-1" d="M78.91,191.93c0-.87,0-1.74,0-2.6v5.43C78.92,193.82,78.91,192.88,78.91,191.93Z"/><path d="M79,189.33c0,.86,0,1.73,0,2.6s0,1.89,0,2.83v-5.43Z"/><path class="cls-4" d="M258,194.05h0a66.56,66.56,0,0,1-132.9,2.49l0-10.25a66.56,66.56,0,0,1,66.64-61.13c1.86,0,3.71.1,5.53.26A66.56,66.56,0,0,1,258,189.91v0"/><path class="cls-5" d="M78.94,191.31l.59-128.1a7.19,7.19,0,0,1,9.93-6.61l27.12,11.18a14.52,14.52,0,0,1,9,13.51l-.48,105c-.14,1.69-.21,3.4-.22,5.12s.05,3.43.17,5.12a66.55,66.55,0,0,0,65.63,61.74h.45a67.15,67.15,0,0,0,8.79-.53c.05.18.1.36.16.54a126.73,126.73,0,0,1,4.77,41.9h0c0,1.16-.12,2.32-.19,3.45-3,.36-6.1.59-9.2.69-1.48.05-3,.08-4.45.07A112.5,112.5,0,0,1,78.94,191.31Z"/><path class="cls-6" d="M303.59,320.78a7.19,7.19,0,0,1-9.92,6.62l-27.13-11.16a14.52,14.52,0,0,1-9-13.5L257.6,283l.35-88.93h0c0-.67,0-1.34,0-2s0-1.41,0-2.1v0a66.56,66.56,0,0,0-60.69-64.48l0-.12a.25.25,0,0,1,0-.07c3.88-13.21,10.36-28.64,21.11-42.76q3.65.9,7.2,2c.72.23,1.43.46,2.15.71a112.48,112.48,0,0,1,76.3,104.23v.07l0,5.43V195Z"/><path class="cls-7" d="M137.23,93.18c-8.68,17.63-11.3,46.4-12,66.54l.27-59.08A113.59,113.59,0,0,1,137.23,93.18Z"/><path class="cls-8" d="M243.21,291.51c11.88-27.24,14.24-63.71,14.68-80.44l-.28,71.59A109.62,109.62,0,0,1,243.21,291.51Z"/></g></g></svg>
