<svg class="hamburger-image" width="1708" height="1023" viewBox="0 0 1708 1023" fill="none" xmlns="http://www.w3.org/2000/svg">

<defs>
    <style>
        #right-wheel {
            animation: wheel 1.5s linear infinite;
            transform-origin: center;
            transform-box: fill-box;
        }

        #top-bread{
        animation: bike 1.5s ease-in-out infinite alternate;
        transform-origin: center;
        transform-box: fill-box;
        }

        #basic-content{
        animation: bikeTwo 1.5s ease-in-out infinite alternate;
        transform-origin: center;
        transform-box: fill-box;
        }

        @keyframes wheel {
        from {
        transform: rotateZ(0deg);
        }

        to {
        transform: rotateZ(360deg);
        }
        }

        @keyframes bike {
        from {
        transform: translateY(0%);
        }

        to {
        transform: translateY(-8%);
        }
        }

        @keyframes bikeTwo {
        from {
        transform: rotateZ(0deg);
        }

        to {
        transform: rotateZ(10deg);
        }
        }
    </style>
</defs>
<g id="hamburger-man">
<path id="Vector" d="M1139.88 828.014C1283.87 826.315 1427.86 827.289 1571.85 830.937C1584.23 831.251 1597.09 831.655 1608.03 834.936C1618.96 838.218 1627.38 845.258 1624.39 852.021C1568.18 853.684 1511.92 854.198 1455.59 853.563C1443.33 859.573 1429.86 868.626 1437.4 876.732C1442.62 882.341 1455.49 884.011 1466.75 884.024C1487.15 884.048 1507.62 880.699 1527.71 882.664C1547.81 884.629 1567.85 895.201 1561.97 906.176C1557.5 914.51 1540.54 918.636 1525.11 919.373C1509.68 920.11 1493.88 918.578 1478.8 920.551C1464.46 922.427 1452.04 927.3 1438.63 930.703C1417.47 936.069 1394.01 937.727 1370.93 939.138C1193.71 949.969 1015.02 949.883 836.756 949.785C764.587 949.745 691.438 949.636 621.748 939.096C582.024 933.088 543.957 923.758 503.731 918.917C455.681 913.135 406.022 913.92 356.884 914.093C270.622 914.397 184.432 912.734 98.3156 909.104C91.9071 908.834 84.0409 907.918 82.3114 904.439C80.293 900.379 88.4843 897.211 95.4082 895.591C134.642 886.505 174.535 880.552 214.711 877.788C235.058 876.356 256.025 875.628 274.739 870.916C293.453 866.204 309.802 856.323 309.627 844.797C309.573 841.281 308.09 837.52 311.023 834.415C314.918 830.291 324.5 829.345 332.768 828.895C424.42 823.911 516.571 821.831 608.639 822.667C641.025 822.961 673.545 823.612 705.701 821.43C732.049 819.641 757.857 815.97 783.823 812.888C818.679 808.751 970.368 787.318 992.496 804.709C1009.06 817.727 974.861 820.536 1019.29 825.848C1057.97 830.473 1100.64 828.477 1139.88 828.014Z" fill="url(#paint0_linear)"/>
<g id="bottom-bread">
<path id="Vector_2" d="M518.294 768.755C518.294 768.755 464.894 874.462 510.341 874.462C555.787 874.462 1128.41 876.735 1144.32 847.183C1155.46 826.478 1149.32 752.77 1144.64 710.491C1143.73 702.274 1139.71 694.717 1133.41 689.375C1127.1 684.033 1118.99 681.31 1110.74 681.768C986.893 688.606 524.235 713.949 526.247 710.786C530.224 704.535 527.383 706.24 527.383 706.24C527.383 706.24 509.205 764.208 518.294 768.755Z" fill="#3F3D56"/>
<path id="Vector_3" opacity="0.1" d="M1145.78 710.491C1144.87 702.274 1140.85 694.717 1134.54 689.375C1128.24 684.032 1120.12 681.31 1111.87 681.768C988.03 688.606 525.371 713.949 527.383 710.786C531.36 704.535 528.519 706.24 528.519 706.24C528.519 706.24 524.462 719.181 521.139 733.313C521.61 733.266 521.962 733.71 520.428 736.41C520.292 737.02 520.157 737.629 520.025 738.239C538.555 740.07 982.929 715.728 1103.92 709.047C1112.17 708.59 1120.28 711.312 1126.59 716.654C1132.9 721.997 1136.92 729.553 1137.83 737.77C1141.3 769.204 1145.59 818.006 1142.98 849.486C1143.99 848.939 1144.84 848.147 1145.46 847.183C1156.6 826.478 1150.46 752.77 1145.78 710.491Z" fill="black"/>
</g>
<g id="secondary-content">
<path id="Vector_4" d="M581.941 610.336C576.022 608.522 568.53 606.178 569.206 602.356C569.564 600.326 572.28 598.742 574.248 597.039C578.041 593.758 579.064 589.135 574.99 585.966C570.915 582.797 561.101 582.373 557.506 585.727C555.657 587.452 555.768 589.616 554.814 591.564C551.835 597.644 539.784 600.313 529.547 602.675C519.309 605.036 507.855 609.431 508.817 615.72C509.867 622.581 525.66 628.667 519.306 634.517C517.001 636.638 512.154 637.822 511.123 640.249C510.397 641.956 511.855 643.693 513.27 645.252L523.327 656.337C527.328 660.747 531.451 665.546 530.111 670.455C527.455 680.185 505.864 683.907 488.751 682.814C482.484 682.414 475.118 681.866 470.812 684.5C467.493 686.53 467.498 689.693 468.602 692.4C471.441 699.366 480.523 705.399 492.148 708.04C479.119 710.612 474.003 721.45 482.998 727.422C477.85 729.194 472.285 729.354 467.045 727.88C462.596 731.977 465.211 737.6 470.854 741.185C476.496 744.769 484.49 746.786 492.23 748.7L484.986 755.476C490.228 759.572 501.548 758.128 509.182 755.539C516.815 752.951 525.099 749.475 533.651 750.83C541.673 752.1 547.74 757.452 555.907 756.536C562.237 755.826 565.249 751.756 567.221 748.244L575.603 733.313C587.536 735.181 600.083 727.001 595.291 720.478C608.644 721.912 621.787 713.237 617.403 705.882C624.515 711.369 629.522 717.743 631.971 724.428C633.066 727.415 633.732 730.573 636.713 733.104C638.662 734.555 640.92 735.535 643.31 735.967C645.701 736.4 648.159 736.274 650.492 735.598C648.057 740.322 646.085 745.832 651.089 749.84C656.093 753.848 670.532 752.712 669.894 747.8C677.525 751.081 686.076 754.164 695.612 754.408C705.148 754.653 715.585 751.022 716.453 745.586C729.892 750.02 743.952 752.284 758.103 752.292C759.307 748.654 767.714 747.477 773.999 748.367C780.284 749.256 786.114 751.392 792.589 751.396C799.064 751.4 806.027 747.501 802.712 744.32C816.346 747.174 830.342 747.88 844.193 746.414C857.26 745.027 869.643 741.728 882.875 741.017C896.297 740.2 909.736 742.323 922.253 747.239C926.591 749.059 931.982 751.349 936.748 749.922C939.451 749.112 940.765 747.364 942.601 745.97C950.504 739.972 966.665 741.122 979.134 743.48C991.602 745.839 1006.11 748.678 1017.03 744.51C1021.15 742.937 1024.19 740.506 1028.58 739.186C1044.28 734.456 1063.08 746.576 1079.76 743.089C1085.19 741.953 1089.59 739.236 1095.34 738.901C1105.54 738.306 1112.28 745.223 1122.2 746.711C1132.49 748.255 1143.65 741.99 1141.14 736.077C1151.03 736.297 1160.89 734.925 1170.35 732.015L1165.68 723.603C1177.32 723.415 1185.88 715.066 1180.49 709.163C1192.16 706.939 1201.4 700.952 1203.8 694.05C1206.2 687.147 1201.67 679.597 1192.37 674.987C1186.88 672.267 1179.68 670.354 1176.54 666.608C1174.28 663.91 1174.61 660.772 1173.73 657.823C1171.81 651.369 1163.47 645.671 1152.7 643.449C1148.03 642.484 1142.91 642.117 1138.67 640.627C1134.44 639.137 1131.38 635.909 1133.82 633.433C1135.12 632.122 1137.61 631.35 1139.22 630.16C1145.75 625.335 1134.55 619.228 1124.99 616.519L1147.82 615.772L1152.72 593.535C1143.69 600.885 1120.26 599.339 1114.39 591.006C1121.72 593.413 1131.56 590.335 1135.15 585.955C1138.73 581.575 1137.85 576.481 1136.89 571.676C1136.8 570.482 1136.41 569.332 1135.74 568.338C1135.07 567.344 1134.16 566.54 1133.09 566.004C1130.85 564.939 1127.29 564.495 1126.56 562.885C1125.81 561.243 1128.7 559.79 1129.13 558.111C1129.96 554.887 1122.55 553.466 1117.55 551.906C1105.74 548.228 1100.03 537.889 1086.6 538.225C1073.27 538.559 1069.55 548.737 1069.54 556.365C1069.53 563.993 1065.02 574.194 1051.69 574.054C1046.36 573.999 1041.72 572.083 1037.47 570.249L999.272 553.77C994.226 551.421 988.976 549.538 983.587 548.144C975.883 546.346 967.373 546.133 959.058 545.944L905.63 544.73C902.909 544.516 900.171 544.751 897.526 545.427C894.72 546.365 893.356 548.212 891.665 549.8C884.226 556.788 866.734 559.525 854.111 555.676C850.764 554.656 847.765 553.249 844.218 552.48C833.047 550.058 821.324 554.539 809.718 556.158C790.69 558.812 767.046 554.244 753.329 562.239C748.756 564.904 746.33 568.549 742.092 571.39C737.854 574.23 730.207 576.157 724.862 574.012C725.534 579.225 726.145 584.665 722.617 589.487C719.09 594.309 710.042 598.245 701.153 597.029C696.435 595.781 696.807 591.814 699.038 589.13C701.27 586.445 704.692 583.702 703.579 580.798C702.476 577.918 697.425 576.242 693.649 574.234C689.873 572.226 687.354 568.42 691.365 566.567C688.662 563.092 678.948 563.516 674.675 566.43C670.402 569.344 669.975 573.448 669.509 577.242C669.043 581.036 668.028 585.192 663.076 587.731C654.639 592.058 638.44 589.813 632.844 595.449C631.067 597.24 630.962 599.4 629.945 601.375C625.405 610.19 605.807 612.473 589.787 613.193C589.45 615.027 589.375 616.9 589.565 618.755C595.044 616.383 585.913 611.554 581.941 610.336Z" fill="#61AB43"/>
<path id="Vector_5" opacity="0.1" d="M1136.89 600.267C1137.85 605.072 1138.73 610.166 1135.15 614.546C1134.61 615.178 1134.01 615.748 1133.35 616.246C1138.18 616.088 1143 615.93 1147.82 615.772C1149.46 608.36 1151.09 600.947 1152.72 593.535C1148.98 596.58 1142.77 598.093 1136.36 598.235C1136.59 598.898 1136.77 599.577 1136.89 600.267V600.267Z" fill="black"/>
<path id="Vector_6" opacity="0.1" d="M1141.11 626.46C1140.54 623.454 1135.58 620.403 1130.04 618.223C1125.16 620.543 1119.6 621.031 1114.39 619.597C1118.44 625.344 1130.84 627.861 1141.11 626.46Z" fill="black"/>
<path id="Vector_7" opacity="0.1" d="M1148.2 642.663C1148.07 643.23 1147.95 643.796 1147.82 644.363C1140.21 644.612 1132.6 644.861 1124.99 645.11C1134.55 647.819 1145.75 653.926 1139.22 658.751C1137.61 659.941 1135.12 660.713 1133.82 662.024C1131.38 664.5 1134.44 667.728 1138.67 669.218C1142.91 670.708 1148.03 671.075 1152.7 672.04C1163.47 674.262 1171.81 679.96 1173.73 686.414C1174.61 689.363 1174.28 692.501 1176.54 695.199C1179.68 698.945 1186.88 700.858 1192.37 703.578C1192.9 703.84 1193.41 704.115 1193.91 704.395C1198.87 701.588 1202.43 697.968 1203.8 694.05C1206.19 687.147 1201.67 679.597 1192.37 674.987C1186.88 672.267 1179.68 670.354 1176.54 666.608C1174.28 663.91 1174.61 660.772 1173.73 657.823C1171.81 651.369 1163.47 645.671 1152.7 643.449C1151.23 643.145 1149.72 642.902 1148.2 642.663Z" fill="black"/>
<path id="Vector_8" opacity="0.1" d="M479.306 745.066C481.083 741.281 485.623 737.919 492.148 736.631C485.913 735.336 480.04 732.686 474.943 728.868C472.275 728.946 469.611 728.613 467.045 727.88C462.596 731.977 465.211 737.6 470.854 741.185C473.515 742.795 476.35 744.097 479.306 745.066V745.066Z" fill="black"/>
<path id="Vector_9" opacity="0.1" d="M519.577 634.237C522.829 633.02 526.159 632.027 529.546 631.266C539.784 628.904 551.835 626.234 554.814 620.155C555.768 618.207 555.657 616.043 557.506 614.318C561.101 610.964 570.915 611.387 574.99 614.557C579.064 617.726 578.042 622.349 574.248 625.63C572.28 627.333 569.564 628.917 569.205 630.947C568.53 634.769 576.022 637.112 581.941 638.927C584.728 639.824 587.336 641.201 589.65 642.995C589.699 642.589 589.748 642.185 589.787 641.784C605.807 641.064 625.405 638.781 629.945 629.966C630.962 627.991 631.067 625.831 632.844 624.04C638.44 618.404 654.639 620.649 663.077 616.322C668.028 613.783 669.043 609.627 669.509 605.833C669.975 602.039 670.402 597.935 674.675 595.021C678.948 592.107 688.663 591.683 691.365 595.158C687.354 597.011 689.873 600.817 693.649 602.825C697.426 604.833 702.476 606.509 703.579 609.389C704.692 612.293 701.27 615.036 699.039 617.721C696.807 620.406 696.435 624.372 701.153 625.62C710.042 626.836 719.09 622.9 722.617 618.078C726.145 613.256 725.534 607.816 724.862 602.603C730.207 604.748 737.854 602.822 742.092 599.981C746.33 597.14 748.756 593.495 753.329 590.83C767.046 582.835 790.691 587.403 809.718 584.749C821.325 583.13 833.047 578.649 844.218 581.071C847.765 581.84 850.764 583.247 854.111 584.267C866.735 588.116 884.226 585.379 891.665 578.391C893.356 576.803 894.72 574.956 897.526 574.018C900.171 573.343 902.909 573.107 905.63 573.321C923.44 573.726 941.249 574.131 959.059 574.536C967.373 574.725 975.883 574.937 983.587 576.736C988.976 578.129 994.226 580.012 999.273 582.361C1012 587.854 1024.73 593.347 1037.47 598.84C1041.72 600.675 1046.36 602.59 1051.69 602.646C1065.02 602.785 1069.53 592.584 1069.54 584.956C1069.55 577.328 1073.27 567.15 1086.6 566.817C1100.03 566.481 1105.74 576.819 1117.55 580.498C1122.55 582.057 1129.96 583.478 1129.13 586.702C1128.75 588.198 1126.42 589.514 1126.45 590.945C1129.77 590.162 1132.79 588.428 1135.15 585.955C1138.73 581.575 1137.85 576.481 1136.89 571.676C1136.8 570.482 1136.41 569.332 1135.74 568.339C1135.07 567.345 1134.16 566.54 1133.09 566.004C1130.85 564.94 1127.29 564.495 1126.56 562.885C1125.81 561.243 1128.7 559.79 1129.13 558.111C1129.96 554.887 1122.55 553.466 1117.55 551.907C1105.74 548.228 1100.03 537.89 1086.6 538.226C1073.27 538.559 1069.55 548.737 1069.54 556.365C1069.53 563.993 1065.02 574.194 1051.69 574.055C1046.36 573.999 1041.72 572.084 1037.47 570.249C1024.73 564.756 1012 559.263 999.273 553.77C994.226 551.421 988.976 549.538 983.587 548.145C975.884 546.346 967.373 546.134 959.059 545.945C941.249 545.54 923.44 545.135 905.63 544.73C902.909 544.516 900.171 544.752 897.526 545.427C894.72 546.365 893.356 548.212 891.665 549.8C884.226 556.788 866.735 559.525 854.111 555.676C850.764 554.656 847.765 553.249 844.218 552.48C833.047 550.058 821.325 554.539 809.718 556.158C790.691 558.812 767.046 554.244 753.329 562.239C748.756 564.904 746.33 568.549 742.092 571.39C737.854 574.23 730.207 576.157 724.862 574.012C725.534 579.225 726.145 584.665 722.617 589.487C719.09 594.309 710.042 598.245 701.153 597.029C696.435 595.781 696.807 591.815 699.039 589.13C701.27 586.445 704.692 583.702 703.579 580.798C702.476 577.918 697.425 576.242 693.649 574.234C689.873 572.226 687.354 568.421 691.365 566.567C688.663 563.092 678.948 563.516 674.675 566.43C670.402 569.344 669.975 573.448 669.509 577.242C669.043 581.036 668.028 585.192 663.077 587.731C654.639 592.058 638.44 589.813 632.844 595.449C631.067 597.24 630.962 599.4 629.945 601.375C625.405 610.191 605.807 612.473 589.787 613.193C589.748 613.594 589.699 613.998 589.65 614.404C587.336 612.61 584.728 611.233 581.941 610.336C576.022 608.522 568.53 606.178 569.205 602.356C569.564 600.326 572.28 598.742 574.248 597.039C578.042 593.758 579.064 589.135 574.99 585.966C570.915 582.796 561.101 582.373 557.506 585.727C555.657 587.452 555.768 589.616 554.814 591.564C551.835 597.644 539.784 600.313 529.547 602.675C519.309 605.036 507.855 609.431 508.817 615.72C509.851 622.471 525.144 628.473 519.577 634.237Z" fill="black"/>
<path id="Vector_10" opacity="0.1" d="M492.147 708.04C489.332 708.56 486.643 709.613 484.223 711.144C485.757 711.211 487.284 711.311 488.751 711.405C505.864 712.498 527.454 708.776 530.111 699.046C531.451 694.137 527.328 689.338 523.327 684.928C521.718 683.155 520.11 681.382 518.502 679.61C510.129 682.456 498.688 683.449 488.751 682.814C482.484 682.414 475.118 681.866 470.811 684.5C467.493 686.531 467.498 689.693 468.601 692.4C471.441 699.366 480.523 705.4 492.147 708.04Z" fill="black"/>
<path id="Vector_11" d="M840.684 663.548C934.807 663.548 1011.11 613.168 1011.11 551.021C1011.11 488.874 934.807 438.494 840.684 438.494C746.561 438.494 670.259 488.874 670.259 551.021C670.259 613.168 746.561 663.548 840.684 663.548Z" fill="#EA565C"/>
<path id="Vector_12" opacity="0.2" d="M782.74 543.065C782.74 543.065 705.48 551.021 728.204 518.059C750.927 485.096 779.331 473.73 792.965 482.823C806.599 491.916 812.28 516.922 810.008 516.922C807.735 516.922 774.786 497.599 763.425 512.375C752.063 527.152 782.74 543.065 782.74 543.065Z" fill="white"/>
<path id="Vector_13" opacity="0.2" d="M849.683 546.286C849.683 546.286 913.482 590.598 874.778 600.799C836.074 611 807.122 601.114 802.699 585.329C798.275 569.545 810.247 546.87 811.971 548.351C813.695 549.832 826.113 585.965 844.354 582.158C862.596 578.351 849.683 546.286 849.683 546.286Z" fill="white"/>
<path id="Vector_14" opacity="0.2" d="M864.577 518.516C864.577 518.516 869.612 440.98 898.312 468.889C927.013 496.797 933.482 526.71 922.247 538.644C911.013 550.577 885.42 552.013 885.798 549.771C886.177 547.53 910.713 518.249 898.043 504.579C885.374 490.909 864.577 518.516 864.577 518.516Z" fill="white"/>
<path id="Vector_15" d="M635.038 654.455C729.161 654.455 805.463 604.075 805.463 541.928C805.463 479.781 729.161 429.401 635.038 429.401C540.915 429.401 464.614 479.781 464.614 541.928C464.614 604.075 540.915 654.455 635.038 654.455Z" fill="#EA565C"/>
<path id="Vector_16" opacity="0.2" d="M577.094 533.971C577.094 533.971 499.835 541.928 522.558 508.965C545.281 476.003 573.685 464.637 587.319 473.73C600.953 482.823 606.634 507.829 604.362 507.829C602.089 507.829 569.141 488.506 557.779 503.282C546.417 518.058 577.094 533.971 577.094 533.971Z" fill="white"/>
<path id="Vector_17" opacity="0.2" d="M644.037 537.193C644.037 537.193 707.836 581.504 669.132 591.706C630.429 601.907 601.476 592.021 597.053 576.236C592.629 560.452 604.601 537.777 606.326 539.258C608.05 540.739 620.467 576.872 638.709 573.065C656.95 569.258 644.037 537.193 644.037 537.193Z" fill="white"/>
<path id="Vector_18" opacity="0.2" d="M658.931 509.423C658.931 509.423 663.966 431.887 692.667 459.796C721.367 487.704 727.836 517.617 716.601 529.551C705.367 541.484 679.774 542.92 680.153 540.678C680.531 538.437 705.068 509.156 692.398 495.486C679.728 481.816 658.931 509.423 658.931 509.423Z" fill="white"/>
<path id="Vector_19" opacity="0.1" d="M723.728 446.163C760.85 466.804 784.444 497.714 784.444 532.266C784.444 594.413 708.142 644.794 614.019 644.794C581.768 644.794 551.611 638.877 525.897 628.6C555.543 645.085 593.814 655.023 635.606 655.023C729.729 655.023 806.031 604.643 806.031 542.496C806.031 501.644 773.058 465.878 723.728 446.163Z" fill="black"/>
<path id="Vector_20" opacity="0.1" d="M929.374 454.119C966.496 474.761 990.09 505.67 990.09 540.223C990.09 602.37 913.788 652.75 819.665 652.75C787.414 652.75 757.257 646.833 731.543 636.556C761.189 653.041 799.46 662.98 841.252 662.98C935.375 662.98 1011.68 612.6 1011.68 550.453C1011.68 509.6 978.705 473.834 929.374 454.119Z" fill="black"/>
</g>
<g id="basic-content">
<path id="Vector_21" d="M531.467 520.37C531.467 520.37 678.032 363.515 1037.06 428.303C1320.87 479.519 1087.81 567.669 977.711 602.355C945.766 612.415 912.674 618.375 879.229 620.094C755.015 626.493 442.579 632.213 531.467 520.37Z" fill="#714B4F"/>
<path id="Vector_22" opacity="0.1" d="M977.711 567.119C945.766 577.179 912.674 583.139 879.229 584.858C778.603 590.042 554.462 594.777 520.218 536.928C476.977 630.431 761.968 624.998 879.229 618.957C912.674 617.238 945.766 611.278 977.71 601.219C1058.42 575.794 1205.17 521.646 1166.03 474.372C1139.67 511.471 1039.4 547.686 977.711 567.119Z" fill="black"/>
<path id="Vector_23" opacity="0.1" d="M844.48 428.871L884.246 507.299" stroke="black" stroke-width="2" stroke-miterlimit="10"/>
<path id="Vector_24" opacity="0.1" d="M721.774 457.287L755.859 523.212" stroke="black" stroke-width="2" stroke-miterlimit="10"/>
<path id="Vector_25" opacity="0.1" d="M916.059 428.871L969.458 507.299" stroke="black" stroke-width="2" stroke-miterlimit="10"/>
<path id="Vector_26" opacity="0.1" d="M721.774 530.032L1079.67 484.566" stroke="black" stroke-width="2" stroke-miterlimit="10"/>
<path id="Vector_27" opacity="0.1" d="M1066.03 443.648L1091.03 478.883" stroke="black" stroke-width="2" stroke-miterlimit="10"/>
<path id="Vector_28" opacity="0.1" d="M651.332 484.566L667.238 517.529" stroke="black" stroke-width="2" stroke-miterlimit="10"/>
<path id="Vector_29" d="M704.755 377.783C704.755 377.783 1031.58 376.304 1034.58 373.345C1037.58 370.387 1106.54 368.82 1120.04 388.049C1133.53 407.279 1138.03 416.154 1120.04 419.113C1102.05 422.071 509.857 725.308 509.857 725.308C509.857 725.308 476.875 728.267 493.366 695.724C509.857 663.182 704.755 377.783 704.755 377.783Z" fill="#F6C964"/>
</g>
<g id="top-bread">
<path id="Vector_30" d="M841.967 513.037C841.967 525.278 782.961 555.093 710.172 555.093C637.384 555.093 578.377 525.278 578.377 513.037C578.377 500.796 637.384 495.987 710.172 495.987C782.961 495.987 841.967 500.796 841.967 513.037Z" fill="#61AB43"/>
<path id="Vector_31" d="M710.172 534.633C782.961 534.633 841.967 524.71 841.967 512.469C841.967 500.228 782.961 490.304 710.172 490.304C637.384 490.304 578.377 500.228 578.377 512.469C578.377 524.71 637.384 534.633 710.172 534.633Z" fill="#61AB43"/>
<path id="Vector_32" d="M1001.03 492.578C1001.03 504.819 942.024 534.633 869.235 534.633C796.447 534.633 737.44 504.819 737.44 492.578C737.44 480.336 796.447 475.528 869.235 475.528C942.024 475.528 1001.03 480.336 1001.03 492.578Z" fill="#61AB43"/>
<path id="Vector_33" d="M869.235 514.174C942.024 514.174 1001.03 504.25 1001.03 492.009C1001.03 479.768 942.024 469.845 869.235 469.845C796.447 469.845 737.44 479.768 737.44 492.009C737.44 504.25 796.447 514.174 869.235 514.174Z" fill="#61AB43"/>
<path id="Vector_34" d="M1160.09 472.118C1160.09 484.359 1101.09 514.174 1028.3 514.174C955.51 514.174 896.503 484.359 896.503 472.118C896.503 459.877 955.51 455.068 1028.3 455.068C1101.09 455.068 1160.09 459.877 1160.09 472.118Z" fill="#61AB43"/>
<path id="Vector_35" d="M1028.3 493.714C1101.09 493.714 1160.09 483.791 1160.09 471.55C1160.09 459.309 1101.09 449.385 1028.3 449.385C955.51 449.385 896.503 459.309 896.503 471.55C896.503 483.791 955.51 493.714 1028.3 493.714Z" fill="#61AB43"/>
<path id="Vector_36" d="M542.922 478.415C542.922 478.415 488.716 469.587 516.449 425.449C544.182 381.31 553.51 331.831 565.612 320.777C579.142 308.418 858.401 91.7366 1075.96 331.507C1099.01 357.211 1117.74 386.48 1131.44 418.176C1134.07 424.169 1136.97 429.547 1139.81 432.385C1148.63 441.212 1156.2 466.434 1139.81 479.045C1123.42 491.656 640.617 540.84 542.922 478.415Z" fill="#3F3D56"/>
<path id="Vector_37" d="M796.929 294.924C793.588 297.248 789.65 298.561 785.583 298.707C779.318 298.707 774.238 297.013 774.238 294.924C774.238 292.835 779.318 291.141 785.583 291.141C789.65 291.287 793.588 292.6 796.929 294.924V294.924Z" fill="#F2F2F2"/>
<path id="Vector_38" d="M706.167 270.963C702.826 273.287 698.888 274.6 694.822 274.746C688.556 274.746 683.477 273.052 683.477 270.963C683.477 268.873 688.556 267.18 694.822 267.18C698.888 267.326 702.826 268.639 706.167 270.963V270.963Z" fill="#F2F2F2"/>
<path id="Vector_39" d="M952.724 305.879C948.842 307.099 944.691 307.177 940.767 306.101C934.787 304.23 930.445 301.096 931.068 299.102C931.692 297.108 937.045 297.008 943.025 298.88C946.862 300.234 950.229 302.664 952.724 305.879Z" fill="#F2F2F2"/>
<path id="Vector_40" d="M785.066 241.563C781.184 242.783 777.034 242.86 773.109 241.785C767.129 239.913 762.787 236.78 763.411 234.785C764.034 232.791 769.388 232.692 775.368 234.563C779.205 235.917 782.572 238.347 785.066 241.563V241.563Z" fill="#F2F2F2"/>
<path id="Vector_41" d="M967.851 264.263C963.969 265.483 959.818 265.56 955.894 264.485C949.914 262.613 945.571 259.48 946.195 257.485C946.819 255.491 952.172 255.392 958.152 257.263C961.989 258.617 965.356 261.047 967.851 264.263V264.263Z" fill="#F2F2F2"/>
<path id="Vector_42" d="M930.551 260.874C927.21 263.198 923.272 264.511 919.205 264.657C912.94 264.657 907.86 262.964 907.86 260.874C907.86 258.785 912.94 257.091 919.205 257.091C923.272 257.237 927.21 258.55 930.551 260.874V260.874Z" fill="#F2F2F2"/>
<path id="Vector_43" d="M822.141 238.174C818.8 240.498 814.862 241.811 810.795 241.958C804.53 241.958 799.45 240.264 799.45 238.174C799.45 236.085 804.53 234.391 810.795 234.391C814.862 234.537 818.8 235.85 822.141 238.174V238.174Z" fill="#F2F2F2"/>
<path id="Vector_44" d="M905.339 238.174C901.998 240.498 898.06 241.811 893.994 241.958C887.728 241.958 882.648 240.264 882.648 238.174C882.648 236.085 887.728 234.391 893.994 234.391C898.06 234.537 901.998 235.85 905.339 238.174V238.174Z" fill="#F2F2F2"/>
<path id="Vector_45" d="M873.825 287.357C870.484 289.681 866.546 290.995 862.479 291.141C856.213 291.141 851.134 289.447 851.134 287.357C851.134 285.268 856.213 283.574 862.479 283.574C866.546 283.72 870.484 285.033 873.825 287.357V287.357Z" fill="#F2F2F2"/>
<path id="Vector_46" d="M782.161 278.519C783.107 274.56 785.171 270.957 788.108 268.14C792.784 263.967 797.701 261.848 799.092 263.407C800.482 264.966 797.819 269.613 793.144 273.786C790.012 276.385 786.2 278.028 782.161 278.519Z" fill="#F2F2F2"/>
<path id="Vector_47" d="M725.434 264.647C726.38 260.688 728.445 257.085 731.382 254.268C736.057 250.095 740.975 247.975 742.365 249.534C743.756 251.094 741.093 255.741 736.417 259.914C733.286 262.513 729.473 264.156 725.434 264.647V264.647Z" fill="#F2F2F2"/>
<path id="Vector_48" d="M627.109 332.747C628.055 328.788 630.12 325.185 633.057 322.368C637.732 318.194 642.649 316.075 644.04 317.634C645.43 319.193 642.767 323.84 638.092 328.014C634.961 330.613 631.148 332.256 627.109 332.747Z" fill="#F2F2F2"/>
<path id="Vector_49" d="M845.19 257.081C846.136 253.122 848.201 249.518 851.137 246.701C855.813 242.528 860.73 240.409 862.121 241.968C863.511 243.527 860.848 248.174 856.173 252.347C853.042 254.946 849.229 256.59 845.19 257.081Z" fill="#F2F2F2"/>
<path id="Vector_50" d="M822.499 302.48C823.445 298.521 825.51 294.918 828.447 292.101C833.122 287.928 838.04 285.809 839.43 287.368C840.821 288.927 838.158 293.574 833.482 297.747C830.351 300.346 826.538 301.989 822.499 302.48Z" fill="#F2F2F2"/>
</g>
<g id="man-basic">
<path id="Vector_51" d="M1241.22 796.676C1241.22 796.676 1223.96 801.856 1215.33 812.216C1215.33 812.216 1199.8 819.122 1190.3 817.396C1180.81 815.669 1163.55 832.936 1177.36 838.116C1191.17 843.296 1275.74 857.109 1277.47 852.792C1279.19 848.476 1279.19 804.446 1279.19 804.446L1241.22 796.676Z" fill="#575A89"/>
<path id="Vector_52" d="M1376.8 789.262C1376.8 789.262 1360.68 797.315 1353.94 808.997C1353.94 808.997 1339.81 818.457 1330.17 818.378C1320.52 818.298 1306.46 838.261 1320.95 841.005C1335.44 843.75 1421.13 842.909 1422.09 838.36C1423.05 833.812 1415.54 790.429 1415.54 790.429L1376.8 789.262Z" fill="#575A89"/>
<path id="Vector_53" d="M1269.27 203.998C1290.71 203.998 1308.1 186.605 1308.1 165.149C1308.1 143.692 1290.71 126.299 1269.27 126.299C1247.82 126.299 1230.43 143.692 1230.43 165.149C1230.43 186.605 1247.82 203.998 1269.27 203.998Z" fill="#FFB9B9"/>
<path id="Vector_54" d="M1300.77 171.623C1300.77 171.623 1305.08 200.977 1312.85 204.43C1318.25 207.091 1323.2 210.587 1327.52 214.79L1305.94 225.15L1263.66 222.56C1263.66 222.56 1267.11 203.567 1261.07 194.07C1255.03 184.573 1300.77 171.623 1300.77 171.623Z" fill="#FFB9B9"/>
<path id="Vector_55" d="M1381.02 310.62C1381.02 310.62 1400.87 361.557 1381.02 410.766C1361.17 459.976 1352.54 467.746 1352.54 467.746L1346.5 402.996L1353.45 396.692C1353.45 396.692 1357.66 377.048 1354.24 365.417C1350.82 353.787 1356 317.527 1356 317.527L1381.02 310.62Z" fill="#FFB9B9"/>
<path id="Vector_56" d="M1232.59 421.126C1232.59 421.126 1207.56 478.106 1210.15 505.733C1212.74 533.36 1232.59 649.909 1232.59 649.909C1232.59 649.909 1230 800.129 1237.77 800.129C1245.54 800.129 1282.64 813.942 1282.64 804.446C1282.64 794.949 1290.41 567.03 1290.41 567.03C1290.41 567.03 1334.42 667.176 1338.74 674.946C1343.05 682.716 1370.67 804.446 1380.16 804.446C1389.65 804.446 1418.99 795.812 1416.4 789.769C1413.82 783.726 1384.47 649.046 1368.08 614.513C1351.68 579.979 1355.13 449.616 1355.13 449.616L1327.52 389.183L1232.59 421.126Z" fill="#3F3D56"/>
<path id="Vector_57" d="M1257.62 147.45C1257.62 147.45 1233.45 145.724 1231.73 139.68C1230 133.637 1226.55 128.457 1228.28 128.457C1230 128.457 1230.86 124.14 1230.86 124.14C1230.86 124.14 1232.59 123.277 1233.45 124.14C1234.32 125.004 1235.18 118.097 1235.18 118.097C1235.18 118.097 1236.04 115.507 1236.91 117.234C1237.77 118.96 1237.77 118.097 1238.63 115.507C1239.49 112.917 1243.81 111.19 1243.81 111.19C1243.81 111.19 1260.21 112.054 1262.79 108.6C1265.38 105.147 1294.73 107.737 1300.77 112.054C1306.81 116.37 1333.56 131.91 1329.24 144.86C1324.93 157.81 1309.4 186.3 1309.4 190.617C1309.4 194.933 1303.35 194.07 1301.63 189.753C1299.9 185.437 1286.1 180.257 1286.1 177.667C1286.1 175.077 1278.33 150.904 1274.01 152.63C1269.7 154.357 1264.52 168.17 1262.8 165.58C1261.07 162.99 1257.62 147.45 1257.62 147.45Z" fill="#3F3D56"/>
<path id="Vector_58" d="M1376.71 265.727C1376.71 265.727 1341.33 213.927 1330.97 211.337C1320.61 208.747 1297.31 201.84 1297.31 201.84C1297.31 201.84 1274.01 205.293 1267.11 208.747C1260.21 212.2 1234.32 218.243 1233.45 228.603C1232.59 238.963 1240.36 338.247 1236.04 347.743C1231.73 357.24 1217.06 447.89 1223.96 446.163C1230.87 444.436 1225.69 421.99 1255.89 421.126C1286.1 420.263 1302.49 402.133 1313.71 423.716C1324.93 445.3 1356.86 461.703 1356.86 461.703C1357.66 454.743 1358.81 447.827 1360.31 440.983C1362.9 428.896 1353.41 399.543 1353.41 399.543C1353.41 399.543 1354.27 331.34 1357.72 323.57C1361.17 315.8 1376.71 265.727 1376.71 265.727Z" fill="#F63E79"/>
<path id="Vector_59" d="M1363.76 264L1376.71 265.727C1376.71 265.727 1375.84 282.993 1379.3 288.173C1382.75 293.353 1388.79 320.117 1385.34 320.98C1381.89 321.843 1350.82 327.023 1350.82 327.023L1349.09 287.31L1363.76 264Z" fill="#F63E79"/>
<path id="Vector_60" d="M1223.96 295.08C1223.96 295.08 1215.33 351.197 1211.02 358.103C1206.7 365.01 1185.13 461.703 1185.13 461.703C1185.13 461.703 1149.65 511.06 1166.91 510.196C1184.17 509.333 1202.39 465.156 1202.39 465.156C1202.39 465.156 1255.89 367.6 1255.89 357.24C1255.89 346.88 1268.84 295.08 1268.84 295.08L1223.96 295.08Z" fill="#FFB9B9"/>
<path id="Vector_61" d="M1248.99 219.107L1233.45 225.15C1233.45 225.15 1213.61 295.943 1217.92 301.987C1222.24 308.03 1274.01 299.397 1274.88 296.807C1275.74 294.217 1265.38 219.107 1248.99 219.107Z" fill="#F63E79"/>
</g>
<g id="hat">
<path id="Vector_62" d="M1217.66 99.9529C1216.62 107.74 1226.84 112.812 1229.79 120.296C1231.32 124.189 1230.8 128.626 1232.74 132.363C1235.43 137.569 1241.84 139.719 1247.56 141.47C1259.07 145.006 1271.09 149.536 1278.61 158.79C1281.28 162.068 1283.29 165.838 1286.26 168.883C1289.23 171.928 1293.62 174.194 1297.67 173.178C1300.92 172.363 1303.26 169.612 1306.37 168.5C1308.8 167.611 1311.53 167.756 1314.09 167.179C1319.68 165.993 1323.85 161.737 1327.31 157.42C1334.45 148.539 1340.23 138.065 1340.58 126.618C1340.93 115.172 1334.64 102.759 1323.57 98.1551C1320.18 96.7446 1316.54 96.0821 1313.06 94.8893C1304.01 91.7107 1296.86 84.7862 1288.44 80.2139C1286.07 78.7247 1283.36 77.8748 1280.56 77.7466C1278.34 77.9017 1276.17 78.555 1274.23 79.6583C1267.81 83.0114 1262.24 87.8006 1257.95 93.6543C1254.65 98.0377 1252.53 102.416 1246.26 100.378C1239.11 98.1027 1219.86 83.4792 1217.66 99.9529Z" fill="#3F3D56"/>
</g>
</g>
<defs>
<linearGradient id="paint0_linear" x1="393.5" y1="916" x2="1564" y2="831" gradientUnits="userSpaceOnUse">
<stop stop-color="#8346BF"/>
<stop offset="1" stop-color="#EA5786"/>
</linearGradient>
</defs>
</svg>
